<svg id="_x31__x2C_5" enable-background="new 0 0 24 24" height="512" viewBox="0 0 24 24" width="512" xmlns="http://www.w3.org/2000/svg">
	<circle cx="12" cy="12" fill="red" r="5.25" />
	<path d="m13.25 14c-.165 0-.33-.054-.469-.165l-1.25-1c-.178-.142-.281-.357-.281-.585v-2.5c0-.414.336-.75.75-.75s.75.336.75.75v2.14l.969.775c.323.259.376.73.117 1.054-.148.185-.366.281-.586.281z" />
	<path d="m12 18c-3.309 0-6-2.691-6-6s2.691-6 6-6 6 2.691 6 6-2.691 6-6 6zm0-10.5c-2.481 0-4.5 2.019-4.5 4.5s2.019 4.5 4.5 4.5 4.5-2.019 4.5-4.5-2.019-4.5-4.5-4.5z" />
	<path d="m2.8 24c-.41 0-.745-.33-.75-.742l-.05-4.5c-.002-.2.076-.393.217-.536s.333-.222.533-.222h4.5c.414 0 .75.336.75.75s-.336.75-.75.75h-3.741l.041 3.742c.005.414-.327.754-.742.758-.002 0-.005 0-.008 0z" />
	<path d="m21.25 6h-4.5c-.414 0-.75-.336-.75-.75s.336-.75.75-.75h3.75v-3.75c0-.414.336-.75.75-.75s.75.336.75.75v4.5c0 .414-.336.75-.75.75z" />
	<path d="m1.23 16c-.322 0-.62-.209-.718-.534-.339-1.127-.512-2.293-.512-3.466 0-6.617 5.383-12 12-12 3.689 0 7.108 1.653 9.379 4.536.257.325.2.797-.125 1.053-.327.257-.798.2-1.053-.125-1.984-2.519-4.973-3.964-8.201-3.964-5.79 0-10.5 4.71-10.5 10.5 0 1.026.151 2.046.448 3.034.12.396-.104.815-.501.935-.072.021-.145.031-.217.031z" />
	<path d="m12 24c-3.689 0-7.108-1.653-9.379-4.536-.257-.325-.2-.797.125-1.053.326-.255.799-.2 1.053.125 1.984 2.519 4.973 3.964 8.201 3.964 5.79 0 10.5-4.71 10.5-10.5 0-1.026-.151-2.046-.448-3.034-.12-.396.104-.815.501-.935.397-.119.815.105.935.502.339 1.128.512 2.294.512 3.467 0 6.617-5.383 12-12 12z" />
</svg>
